<?xml version="1.0" encoding="UTF-8"?>
<svg version="1.1" xmlns="http://www.w3.org/2000/svg" width="192" height="192">
<path d="M0 0 C0.96346765 0.84406354 1.92238962 1.69582712 2.828125 2.6015625 C3.06341912 8.13097426 3.06341912 8.13097426 1.828125 10.6015625 C2.48296875 10.45976563 3.1378125 10.31796875 3.8125 10.171875 C13.42854093 8.62352943 19.6063219 11.99132949 27.41015625 17.38671875 C31.53311635 20.49774171 35.29359454 23.83899782 38.828125 27.6015625 C37.67639145 30.06956297 36.78028935 31.64939815 34.828125 33.6015625 C35.79298828 33.24578125 35.79298828 33.24578125 36.77734375 32.8828125 C41.53416329 31.52565999 44.59262932 31.08135379 49.2421875 33.0390625 C55.03152976 36.55259435 60.59088683 40.2747488 64.828125 45.6015625 C64.828125 49.6015625 64.828125 49.6015625 63.359375 51.20703125 C62.6890625 51.72910156 62.01875 52.25117187 61.328125 52.7890625 C47.21552273 64.5824609 37.40143044 81.01495693 29.828125 97.6015625 C36.17997914 94.05871504 36.17997914 94.05871504 40.828125 88.6015625 C45.69967899 89.06857237 48.84496342 91.48206257 52.578125 94.4140625 C53.16722656 94.85298828 53.75632813 95.29191406 54.36328125 95.74414062 C58.60831885 99.02794557 58.60831885 99.02794557 59.71875 101.92578125 C59.75484375 102.47878906 59.7909375 103.03179687 59.828125 103.6015625 C41.24710361 120.02990459 41.24710361 120.02990459 28.65234375 119.8828125 C20.11929612 119.03304842 12.03068929 115.11357927 6.18359375 108.8359375 C4.4248436 105.93678739 4.32050565 103.72532397 4.140625 100.3515625 C4.07488281 99.27390625 4.00914063 98.19625 3.94140625 97.0859375 C3.81679779 93.25315314 3.80719382 89.43615397 3.828125 85.6015625 C-2.87693742 93.72367419 -9.27138933 101.89047792 -14.96044922 110.76391602 C-18.82299922 116.76387456 -18.82299922 116.76387456 -21.171875 118.6015625 C-27.68270229 119.64329487 -31.92955962 117.09643942 -37.171875 113.6015625 C-40.6983844 111.04656437 -43.89618502 108.35506335 -46.171875 104.6015625 C-45.19474438 87.79491577 -30.42792926 66.28668225 -20.171875 53.6015625 C-29.03156939 58.85975511 -36.5283031 65.76185301 -44.171875 72.6015625 C-44.7611377 73.12621094 -45.35040039 73.65085937 -45.95751953 74.19140625 C-55.93353428 83.10433333 -64.9703146 92.39935061 -72.796875 103.2890625 C-83.41245251 117.9784671 -83.41245251 117.9784671 -90.046875 119.4765625 C-96.7329357 118.7248752 -103.08315301 114.3980512 -107.296875 109.2890625 C-109.77274282 105.13208705 -109.71190384 101.3256029 -109.171875 96.6015625 C-108.34711443 93.72368172 -107.14778974 91.14285828 -105.796875 88.4765625 C-105.43964355 87.74791992 -105.08241211 87.01927734 -104.71435547 86.26855469 C-92.23688147 61.52808841 -71.55971536 36.13644633 -50.171875 18.6015625 C-49.223125 17.79976562 -48.274375 16.99796875 -47.296875 16.171875 C-41.72251678 11.46598563 -36.0848684 6.87978713 -30.171875 2.6015625 C-45.25031928 8.7247886 -58.8410233 16.46730897 -70.58203125 27.9609375 C-71.43667969 28.50234375 -72.29132813 29.04375 -73.171875 29.6015625 C-79.5550719 27.98769346 -84.92806042 24.48097562 -90.546875 21.1640625 C-91.56910156 20.57818359 -92.59132813 19.99230469 -93.64453125 19.38867188 C-94.61003906 18.82083984 -95.57554688 18.25300781 -96.5703125 17.66796875 C-97.45380371 17.15177979 -98.33729492 16.63559082 -99.24755859 16.10375977 C-99.88258301 15.60803467 -100.51760742 15.11230957 -101.171875 14.6015625 C-101.171875 11.6015625 -101.171875 11.6015625 -99.51171875 9.875 C-69.11567224 -14.14529041 -32.74079868 -27.35440922 0 0 Z " fill="#14447C" transform="translate(118.171875,43.3984375)"/>
<path d="M0 0 C2.35733525 1.90746211 4.05494532 3.63439295 6 6 C6 10 6 10 4.53125 11.60546875 C3.8609375 12.12753906 3.190625 12.64960937 2.5 13.1875 C-11.61260227 24.9808984 -21.42669456 41.41339443 -29 58 C-22.64814586 54.45715254 -22.64814586 54.45715254 -18 49 C-13.12844601 49.46700987 -9.98316158 51.88050007 -6.25 54.8125 C-5.66089844 55.25142578 -5.07179688 55.69035156 -4.46484375 56.14257812 C-0.21980615 59.42638307 -0.21980615 59.42638307 0.890625 62.32421875 C0.92671875 62.87722656 0.9628125 63.43023437 1 64 C-17.58102139 80.42834209 -17.58102139 80.42834209 -30.17578125 80.28125 C-38.70882888 79.43148592 -46.79743571 75.51201677 -52.64453125 69.234375 C-54.4032814 66.33522489 -54.50761935 64.12376147 -54.6875 60.75 C-54.75324219 59.67234375 -54.81898437 58.5946875 -54.88671875 57.484375 C-55.01132721 53.65159064 -55.02093118 49.83459147 -55 46 C-61.70506242 54.12211169 -68.09951433 62.28891542 -73.78857422 71.16235352 C-77.5961541 77.07692328 -77.5961541 77.07692328 -80 79 C-80.66 79 -81.32 79 -82 79 C-83.19406071 54.99631806 -58.77787495 29.80260159 -44 13 C-43.53174805 12.4632666 -43.06349609 11.9265332 -42.58105469 11.37353516 C-29.1368421 -3.97229578 -18.61494535 -13.2808382 0 0 Z " fill="#174A84" transform="translate(177,83)"/>
<path d="M0 0 C1.17175781 0.01353516 1.17175781 0.01353516 2.3671875 0.02734375 C2.94726562 0.03894531 3.52734375 0.05054687 4.125 0.0625 C0.51170033 4.57912459 -3.3846582 8.51723319 -7.6875 12.375 C-17.58520382 21.30681448 -25.84103889 31.46328909 -33.875 42.0625 C-34.30989746 42.63516602 -34.74479492 43.20783203 -35.19287109 43.79785156 C-45.32993019 57.26011206 -56.3437315 72.83572939 -57.875 90.0625 C-66.08262054 89.70564693 -72.81215811 85.39672134 -78.6875 79.8125 C-80.31024196 77.68726124 -80.8922304 76.64294921 -80.8125 73.95703125 C-80.07015368 71.18715153 -79.02677274 68.6901971 -77.875 66.0625 C-77.40320313 64.87398438 -76.93140625 63.68546875 -76.4453125 62.4609375 C-65.92345785 36.52871272 -51.9581165 17.33658791 -25.875 6.0625 C-17.52232528 2.77335373 -9.07249958 -0.13746211 0 0 Z " fill="#164982" transform="translate(152.875,71.9375)"/>
<path d="M0 0 C0.91193115 0.59458008 0.91193115 0.59458008 1.84228516 1.20117188 C6.4635701 4.28780872 10.32718475 7.61499686 14 11.8125 C14 12.1425 14 12.4725 14 12.8125 C12.22109375 13.03292969 12.22109375 13.03292969 10.40625 13.2578125 C-10.60299734 16.07535373 -29.19605906 23.60221918 -45.36328125 37.5703125 C-48.13048781 39.92346297 -50.99993531 42.05178027 -53.9375 44.1875 C-59.38460972 48.22867609 -64.33072955 52.630183 -69.265625 57.265625 C-71.46450598 59.31372557 -73.69470153 61.2632426 -76 63.1875 C-84.27796274 70.42000575 -91.37523581 78.70144656 -97.75 87.625 C-106.22179709 99.48159241 -106.22179709 99.48159241 -111 102.8125 C-112.32 102.8125 -113.64 102.8125 -115 102.8125 C-113.66375784 75.19682869 -81.21196955 48.97378735 -63.0625 30.75 C-62.28189209 29.96471924 -61.50128418 29.17943848 -60.69702148 28.37036133 C-53.9295082 21.62163265 -46.77122042 15.43030757 -39.4375 9.3125 C-35.79000662 6.26155437 -32.28707974 3.1953199 -29 -0.25 C-20.34668052 -9.13661976 -9.3755227 -6.21047107 0 0 Z " fill="#1873B9" transform="translate(143,59.1875)"/>
<path d="M0 0 C0.42667969 0.38414063 0.85335937 0.76828125 1.29296875 1.1640625 C1.29296875 1.4940625 1.29296875 1.8240625 1.29296875 2.1640625 C0.68525635 2.1326416 0.07754395 2.1012207 -0.54858398 2.06884766 C-27.1790959 0.87991833 -45.34513551 9.56586823 -65.70703125 26.1640625 C-66.20074219 26.65342285 -66.69445312 27.1427832 -67.203125 27.64697266 C-68.70703125 29.08984375 -68.70703125 29.08984375 -71.70703125 31.1640625 C-78.08691382 29.62620148 -83.4851816 26.03050923 -89.08203125 22.7265625 C-90.10425781 22.14068359 -91.12648438 21.55480469 -92.1796875 20.95117188 C-93.14519531 20.38333984 -94.11070313 19.81550781 -95.10546875 19.23046875 C-95.98895996 18.71427979 -96.87245117 18.19809082 -97.78271484 17.66625977 C-98.41773926 17.17053467 -99.05276367 16.67480957 -99.70703125 16.1640625 C-99.70703125 13.1640625 -99.70703125 13.1640625 -98.046875 11.4375 C-68.30894523 -12.06271767 -32.86116624 -25.34036324 0 0 Z " fill="#1873BA" transform="translate(116.70703125,41.8359375)"/>
<path d="M0 0 C2.25656591 1.90343919 4.06489786 3.75109751 6 6 C6 6.66 6 7.32 6 8 C5.030625 8.0515625 4.06125 8.103125 3.0625 8.15625 C-12.41690165 9.32958163 -24.48551772 15.68208232 -36 26 C-36.82886719 26.69867188 -37.65773437 27.39734375 -38.51171875 28.1171875 C-44.79867848 33.52801655 -49.88996798 39.49029957 -55 46 C-55.95715418 47.17130282 -56.91691764 48.34047693 -57.87890625 49.5078125 C-63.59704882 56.48286146 -68.91896136 63.56923731 -73.79077148 71.16503906 C-77.59392764 77.07514211 -77.59392764 77.07514211 -80 79 C-80.66 79 -81.32 79 -82 79 C-83.19406071 54.99631806 -58.77787495 29.80260159 -44 13 C-43.53174805 12.4632666 -43.06349609 11.9265332 -42.58105469 11.37353516 C-29.15844713 -3.94763482 -18.59037602 -13.31766703 0 0 Z " fill="#1873B9" transform="translate(177,83)"/>
<path d="M0 0 C4.85803095 0.3102757 8.05583846 2.91113043 11.75 5.8125 C12.33910156 6.25142578 12.92820313 6.69035156 13.53515625 7.14257812 C17.78019385 10.42638307 17.78019385 10.42638307 18.890625 13.32421875 C18.94476563 14.15373047 18.94476563 14.15373047 19 15 C0.673228 31.20354842 0.673228 31.20354842 -10.1875 31.0625 C-11.53908203 31.04896484 -11.53908203 31.04896484 -12.91796875 31.03515625 C-13.60503906 31.02355469 -14.29210937 31.01195312 -15 31 C-16.37741824 13.82478485 -16.37741824 13.82478485 -13.171875 9.578125 C-10.83990534 8.14187879 -8.51511459 7.07429518 -6 6 C-4.14604539 4.44855547 -2.63529155 2.78860014 -1 1 C-0.67 0.67 -0.34 0.34 0 0 Z " fill="#1973BA" transform="translate(159,132)"/>
</svg>
